<?xml version="1.0" encoding="utf-8"?>
<!-- Generator: Adobe Illustrator 16.2.0, SVG Export Plug-In . SVG Version: 6.00 Build 0)  -->
<!DOCTYPE svg PUBLIC "-//W3C//DTD SVG 1.1//EN" "http://www.w3.org/Graphics/SVG/1.1/DTD/svg11.dtd">
<svg version="1.1" id="Ebene_1" xmlns="http://www.w3.org/2000/svg" xmlns:xlink="http://www.w3.org/1999/xlink" x="0px" y="0px"
	 width="200px" height="140px" viewBox="0 0 200 140" enable-background="new 0 0 200 140" xml:space="preserve">
<g>
	<g>
		
			<image overflow="visible" opacity="0.85" enable-background="new    " width="138" height="46" xlink:href="2EC21E60.png"  transform="matrix(0.233 0 0 0.2191 48.001 86)">
		</image>
		<g>
			<path fill="#2A91BE" d="M73,91H53c-1.66,0-3-1.34-3-3v1c0,1.66,1.34,3,3,3h20c1.66,0,3-1.34,3-3v-1C76,89.66,74.661,91,73,91z"/>
		</g>
	</g>
</g>
<g>
	<g>
		
			<image overflow="visible" opacity="0.85" enable-background="new    " width="288" height="50" xlink:href="2EC21E61.png"  transform="matrix(0.2367 0 0 0.2208 86.0005 85)">
		</image>
		<g>
			<path fill="#2991BE" d="M145,91h-2H95h-2c-2.25,0-5-1.77-5-4v1c0,2.23,2.75,4,5,4h2h48h2c2.25,0,5-1.77,5-4v-1
				C150,89.23,147.25,91,145,91z"/>
		</g>
	</g>
</g>
<linearGradient id="SVGID_1_" gradientUnits="userSpaceOnUse" x1="-116.8022" y1="204.6221" x2="-76.5079" y2="164.8178" gradientTransform="matrix(1 0 0 -1 174.2549 262.5742)">
	<stop  offset="0" style="stop-color:#000000"/>
	<stop  offset="1" style="stop-color:#000000;stop-opacity:0"/>
</linearGradient>
<path opacity="0.12" fill="url(#SVGID_1_)" enable-background="new    " d="M51.67,90.84c-0.23,0-0.45-0.029-0.67-0.08l42.93,42.92
	l40.58-38.59L75.411,36l-0.221,0.22c0.311,0.46,0.48,1.021,0.48,1.62v50c0,1.66-1.34,3-3,3H51.67z"/>
<rect x="52.127" y="43.912" fill="#41C0F0" width="22" height="40"/>
<g>
	
		<image overflow="visible" opacity="0.85" enable-background="new    " width="138" height="263" xlink:href="2EC21E67.png"  transform="matrix(0.233 0 0 0.2363 48.001 33.0005)">
	</image>
	<g>
		<path fill="#FFFFFF" d="M73,35H53c-1.66,0-3,1.34-3,3v50c0,1.66,1.34,3,3,3h20c1.66,0,3-1.34,3-3V38C76,36.34,74.661,35,73,35z
			 M61,38h3c0.55,0,1,0.45,1,1s-0.45,1-1,1h-3c-0.55,0-1-0.45-1-1S60.451,38,61,38z M74,84H52V43h22V84z"/>
	</g>
</g>
<g opacity="0.9">
	
		<linearGradient id="SVGID_2_" gradientUnits="userSpaceOnUse" x1="-61.0322" y1="217.8613" x2="-8.532" y2="166.0282" gradientTransform="matrix(1 0 0 -1 174.2549 262.5742)">
		<stop  offset="0" style="stop-color:#000000"/>
		<stop  offset="1" style="stop-color:#000000;stop-opacity:0"/>
	</linearGradient>
	<polygon opacity="0.1" fill="url(#SVGID_2_)" enable-background="new    " points="214,76.313 147.619,10 141.625,15.987 
		137.63,19.978 122.648,34.945 118.652,38.936 107.827,49.751 103.831,53.743 97.838,59.729 93.843,63.721 88,69.548 88,87.816 
		145.243,145 	"/>
</g>
<g>
	
		<image overflow="visible" opacity="0.85" enable-background="new    " width="288" height="367" xlink:href="2EC21E62.png"  transform="matrix(0.2367 0 0 0.2374 86.0005 8.0005)">
	</image>
	<g>
		<path fill="#FFFFFF" d="M146,10H93c-2.25,0-5,1.77-5,4v68v3v2c0,2.23,2.75,4,5,4h2h48h2c2.25,0,5-1.77,5-4v-2v-2V14
			C150,11.77,148.25,10,146,10z M117,14h4c0.55,0,1,0.45,1,1s-0.45,1-1,1h-4c-0.55,0-1-0.45-1-1S116.451,14,117,14z M143,82H95V19
			h48V82z"/>
	</g>
</g>
<g>
	<g>
		<rect x="95" y="19" fill="#2C92BE" width="48" height="62"/>
	</g>
	<g>
		<rect x="95" y="20" fill="#1B4865" width="48" height="62"/>
	</g>
</g>
<g>
	<g>
		<rect x="52" y="43" fill="#2C92BE" width="22" height="40"/>
	</g>
	<g>
		<rect x="52" y="44" fill="#1B4865" width="22" height="40"/>
	</g>
</g>
<path fill="#FFFFFF" d="M116.627,86.911c0-1.101,0.9-2,2-2s2,0.899,2,2s-0.9,2-2,2S116.627,88.012,116.627,86.911z"/>
<path fill="#2197C2" d="M117,87c0-1.1,0.9-2,2-2s2,0.9,2,2s-0.9,2-2,2S117,88.1,117,87z"/>
<path fill="#2197C2" d="M62.5,89c-0.83,0-1.5-0.67-1.5-1.5s0.67-1.5,1.5-1.5s1.5,0.67,1.5,1.5S63.331,89,62.5,89z"/>
</svg>
